<mxfile host="app.diagrams.net" agent="Mozilla/5.0 (X11; Ubuntu; Linux x86_64; rv:135.0) Gecko/20100101 Firefox/135.0" version="26.0.16">
  <diagram id="C5RBs43oDa-KdzZeNtuy" name="Page-1">
    <mxGraphModel dx="2074" dy="1181" grid="1" gridSize="10" guides="1" tooltips="1" connect="1" arrows="1" fold="1" page="1" pageScale="1" pageWidth="827" pageHeight="1169" math="0" shadow="0">
      <root>
        <mxCell id="WIyWlLk6GJQsqaUBKTNV-0" />
        <mxCell id="WIyWlLk6GJQsqaUBKTNV-1" parent="WIyWlLk6GJQsqaUBKTNV-0" />
        <mxCell id="WIyWlLk6GJQsqaUBKTNV-2" value="" style="rounded=0;html=1;jettySize=auto;orthogonalLoop=1;fontSize=11;endArrow=block;endFill=0;endSize=8;strokeWidth=1;shadow=0;labelBackgroundColor=none;edgeStyle=orthogonalEdgeStyle;" parent="WIyWlLk6GJQsqaUBKTNV-1" source="WIyWlLk6GJQsqaUBKTNV-3" target="WIyWlLk6GJQsqaUBKTNV-6" edge="1">
          <mxGeometry relative="1" as="geometry" />
        </mxCell>
        <mxCell id="R5FXkQCkuI0y1Rf3ddFC-20" style="edgeStyle=orthogonalEdgeStyle;rounded=0;orthogonalLoop=1;jettySize=auto;html=1;entryX=1;entryY=0.5;entryDx=0;entryDy=0;" edge="1" parent="WIyWlLk6GJQsqaUBKTNV-1" source="WIyWlLk6GJQsqaUBKTNV-3" target="R5FXkQCkuI0y1Rf3ddFC-17">
          <mxGeometry relative="1" as="geometry">
            <mxPoint x="600" y="840" as="targetPoint" />
            <Array as="points">
              <mxPoint x="550" y="100" />
              <mxPoint x="550" y="830" />
            </Array>
          </mxGeometry>
        </mxCell>
        <mxCell id="WIyWlLk6GJQsqaUBKTNV-3" value="Raw DNA reads" style="rounded=1;whiteSpace=wrap;html=1;fontSize=12;glass=0;strokeWidth=1;shadow=0;" parent="WIyWlLk6GJQsqaUBKTNV-1" vertex="1">
          <mxGeometry x="160" y="80" width="120" height="40" as="geometry" />
        </mxCell>
        <mxCell id="R5FXkQCkuI0y1Rf3ddFC-5" style="edgeStyle=orthogonalEdgeStyle;rounded=0;orthogonalLoop=1;jettySize=auto;html=1;entryX=0.5;entryY=0;entryDx=0;entryDy=0;" edge="1" parent="WIyWlLk6GJQsqaUBKTNV-1" source="WIyWlLk6GJQsqaUBKTNV-6" target="R5FXkQCkuI0y1Rf3ddFC-0">
          <mxGeometry relative="1" as="geometry" />
        </mxCell>
        <mxCell id="R5FXkQCkuI0y1Rf3ddFC-6" style="edgeStyle=orthogonalEdgeStyle;rounded=0;orthogonalLoop=1;jettySize=auto;html=1;" edge="1" parent="WIyWlLk6GJQsqaUBKTNV-1" source="WIyWlLk6GJQsqaUBKTNV-6">
          <mxGeometry relative="1" as="geometry">
            <mxPoint x="320" y="210" as="targetPoint" />
          </mxGeometry>
        </mxCell>
        <mxCell id="WIyWlLk6GJQsqaUBKTNV-6" value="Host Removal" style="rhombus;whiteSpace=wrap;html=1;shadow=0;fontFamily=Helvetica;fontSize=12;align=center;strokeWidth=1;spacing=6;spacingTop=-4;" parent="WIyWlLk6GJQsqaUBKTNV-1" vertex="1">
          <mxGeometry x="170" y="170" width="100" height="80" as="geometry" />
        </mxCell>
        <mxCell id="R5FXkQCkuI0y1Rf3ddFC-12" value="" style="edgeStyle=orthogonalEdgeStyle;rounded=0;orthogonalLoop=1;jettySize=auto;html=1;" edge="1" parent="WIyWlLk6GJQsqaUBKTNV-1" source="WIyWlLk6GJQsqaUBKTNV-11" target="R5FXkQCkuI0y1Rf3ddFC-11">
          <mxGeometry relative="1" as="geometry" />
        </mxCell>
        <mxCell id="WIyWlLk6GJQsqaUBKTNV-11" value="Clean Normalized DNA reads" style="rounded=1;whiteSpace=wrap;html=1;fontSize=12;glass=0;strokeWidth=1;shadow=0;" parent="WIyWlLk6GJQsqaUBKTNV-1" vertex="1">
          <mxGeometry x="160" y="530" width="120" height="40" as="geometry" />
        </mxCell>
        <mxCell id="R5FXkQCkuI0y1Rf3ddFC-4" value="" style="edgeStyle=orthogonalEdgeStyle;rounded=0;orthogonalLoop=1;jettySize=auto;html=1;entryX=0.5;entryY=0;entryDx=0;entryDy=0;" edge="1" parent="WIyWlLk6GJQsqaUBKTNV-1" source="R5FXkQCkuI0y1Rf3ddFC-0" target="R5FXkQCkuI0y1Rf3ddFC-3">
          <mxGeometry relative="1" as="geometry">
            <mxPoint x="220" y="390" as="targetPoint" />
          </mxGeometry>
        </mxCell>
        <mxCell id="R5FXkQCkuI0y1Rf3ddFC-0" value="Clean DNA reads" style="rounded=1;whiteSpace=wrap;html=1;" vertex="1" parent="WIyWlLk6GJQsqaUBKTNV-1">
          <mxGeometry x="160" y="290" width="120" height="60" as="geometry" />
        </mxCell>
        <mxCell id="R5FXkQCkuI0y1Rf3ddFC-8" value="" style="edgeStyle=orthogonalEdgeStyle;rounded=0;orthogonalLoop=1;jettySize=auto;html=1;" edge="1" parent="WIyWlLk6GJQsqaUBKTNV-1" source="R5FXkQCkuI0y1Rf3ddFC-3" target="R5FXkQCkuI0y1Rf3ddFC-7">
          <mxGeometry relative="1" as="geometry" />
        </mxCell>
        <mxCell id="R5FXkQCkuI0y1Rf3ddFC-10" style="edgeStyle=orthogonalEdgeStyle;rounded=0;orthogonalLoop=1;jettySize=auto;html=1;" edge="1" parent="WIyWlLk6GJQsqaUBKTNV-1" source="R5FXkQCkuI0y1Rf3ddFC-3" target="WIyWlLk6GJQsqaUBKTNV-11">
          <mxGeometry relative="1" as="geometry" />
        </mxCell>
        <mxCell id="R5FXkQCkuI0y1Rf3ddFC-3" value="Normalization" style="rhombus;whiteSpace=wrap;html=1;rounded=1;" vertex="1" parent="WIyWlLk6GJQsqaUBKTNV-1">
          <mxGeometry x="170" y="400" width="100" height="100" as="geometry" />
        </mxCell>
        <mxCell id="R5FXkQCkuI0y1Rf3ddFC-7" value="&lt;div&gt;min count = 2&lt;/div&gt;&lt;div&gt;hcf = 0,6&lt;/div&gt;" style="ellipse;whiteSpace=wrap;html=1;rounded=1;" vertex="1" parent="WIyWlLk6GJQsqaUBKTNV-1">
          <mxGeometry x="360" y="410" width="120" height="80" as="geometry" />
        </mxCell>
        <mxCell id="R5FXkQCkuI0y1Rf3ddFC-16" value="" style="edgeStyle=orthogonalEdgeStyle;rounded=0;orthogonalLoop=1;jettySize=auto;html=1;" edge="1" parent="WIyWlLk6GJQsqaUBKTNV-1" source="R5FXkQCkuI0y1Rf3ddFC-11" target="R5FXkQCkuI0y1Rf3ddFC-15">
          <mxGeometry relative="1" as="geometry" />
        </mxCell>
        <mxCell id="R5FXkQCkuI0y1Rf3ddFC-18" value="" style="edgeStyle=orthogonalEdgeStyle;rounded=0;orthogonalLoop=1;jettySize=auto;html=1;" edge="1" parent="WIyWlLk6GJQsqaUBKTNV-1" source="R5FXkQCkuI0y1Rf3ddFC-11" target="R5FXkQCkuI0y1Rf3ddFC-17">
          <mxGeometry relative="1" as="geometry" />
        </mxCell>
        <mxCell id="R5FXkQCkuI0y1Rf3ddFC-11" value="Assembly" style="rhombus;whiteSpace=wrap;html=1;rounded=1;glass=0;strokeWidth=1;shadow=0;" vertex="1" parent="WIyWlLk6GJQsqaUBKTNV-1">
          <mxGeometry x="180" y="630" width="80" height="80" as="geometry" />
        </mxCell>
        <mxCell id="R5FXkQCkuI0y1Rf3ddFC-15" value="meta-sensitive" style="ellipse;whiteSpace=wrap;html=1;rounded=1;glass=0;strokeWidth=1;shadow=0;" vertex="1" parent="WIyWlLk6GJQsqaUBKTNV-1">
          <mxGeometry x="340" y="630" width="120" height="80" as="geometry" />
        </mxCell>
        <mxCell id="R5FXkQCkuI0y1Rf3ddFC-28" value="" style="edgeStyle=orthogonalEdgeStyle;rounded=0;orthogonalLoop=1;jettySize=auto;html=1;" edge="1" parent="WIyWlLk6GJQsqaUBKTNV-1" source="R5FXkQCkuI0y1Rf3ddFC-17" target="R5FXkQCkuI0y1Rf3ddFC-27">
          <mxGeometry relative="1" as="geometry" />
        </mxCell>
        <mxCell id="R5FXkQCkuI0y1Rf3ddFC-17" value="DNA contigs" style="whiteSpace=wrap;html=1;rounded=1;glass=0;strokeWidth=1;shadow=0;" vertex="1" parent="WIyWlLk6GJQsqaUBKTNV-1">
          <mxGeometry x="160" y="800" width="120" height="60" as="geometry" />
        </mxCell>
        <mxCell id="R5FXkQCkuI0y1Rf3ddFC-24" value="" style="edgeStyle=orthogonalEdgeStyle;rounded=0;orthogonalLoop=1;jettySize=auto;html=1;" edge="1" parent="WIyWlLk6GJQsqaUBKTNV-1" source="R5FXkQCkuI0y1Rf3ddFC-21" target="R5FXkQCkuI0y1Rf3ddFC-23">
          <mxGeometry relative="1" as="geometry" />
        </mxCell>
        <mxCell id="R5FXkQCkuI0y1Rf3ddFC-21" value="Align" style="rhombus;whiteSpace=wrap;html=1;" vertex="1" parent="WIyWlLk6GJQsqaUBKTNV-1">
          <mxGeometry x="510" y="430" width="80" height="80" as="geometry" />
        </mxCell>
        <mxCell id="R5FXkQCkuI0y1Rf3ddFC-22" value="&lt;div&gt;bowtie2 end-to-end&lt;/div&gt;&lt;div&gt;-- very-sensitive&lt;/div&gt;" style="ellipse;whiteSpace=wrap;html=1;" vertex="1" parent="WIyWlLk6GJQsqaUBKTNV-1">
          <mxGeometry x="320" y="170" width="120" height="80" as="geometry" />
        </mxCell>
        <mxCell id="R5FXkQCkuI0y1Rf3ddFC-23" value="&lt;div&gt;end-to-end&lt;/div&gt;&lt;div&gt;--sensitive&lt;/div&gt;" style="ellipse;whiteSpace=wrap;html=1;" vertex="1" parent="WIyWlLk6GJQsqaUBKTNV-1">
          <mxGeometry x="670" y="430" width="120" height="80" as="geometry" />
        </mxCell>
        <mxCell id="R5FXkQCkuI0y1Rf3ddFC-50" value="" style="edgeStyle=orthogonalEdgeStyle;rounded=0;orthogonalLoop=1;jettySize=auto;html=1;" edge="1" parent="WIyWlLk6GJQsqaUBKTNV-1" source="R5FXkQCkuI0y1Rf3ddFC-27" target="R5FXkQCkuI0y1Rf3ddFC-43">
          <mxGeometry relative="1" as="geometry" />
        </mxCell>
        <mxCell id="R5FXkQCkuI0y1Rf3ddFC-51" value="" style="edgeStyle=orthogonalEdgeStyle;rounded=0;orthogonalLoop=1;jettySize=auto;html=1;" edge="1" parent="WIyWlLk6GJQsqaUBKTNV-1" source="R5FXkQCkuI0y1Rf3ddFC-27" target="R5FXkQCkuI0y1Rf3ddFC-43">
          <mxGeometry relative="1" as="geometry" />
        </mxCell>
        <mxCell id="R5FXkQCkuI0y1Rf3ddFC-52" style="edgeStyle=orthogonalEdgeStyle;rounded=0;orthogonalLoop=1;jettySize=auto;html=1;entryX=0.5;entryY=0;entryDx=0;entryDy=0;" edge="1" parent="WIyWlLk6GJQsqaUBKTNV-1" source="R5FXkQCkuI0y1Rf3ddFC-27" target="R5FXkQCkuI0y1Rf3ddFC-42">
          <mxGeometry relative="1" as="geometry" />
        </mxCell>
        <mxCell id="R5FXkQCkuI0y1Rf3ddFC-55" style="edgeStyle=orthogonalEdgeStyle;rounded=0;orthogonalLoop=1;jettySize=auto;html=1;exitX=0.5;exitY=1;exitDx=0;exitDy=0;entryX=0.5;entryY=0;entryDx=0;entryDy=0;" edge="1" parent="WIyWlLk6GJQsqaUBKTNV-1" source="R5FXkQCkuI0y1Rf3ddFC-27" target="R5FXkQCkuI0y1Rf3ddFC-54">
          <mxGeometry relative="1" as="geometry" />
        </mxCell>
        <mxCell id="R5FXkQCkuI0y1Rf3ddFC-56" style="edgeStyle=orthogonalEdgeStyle;rounded=0;orthogonalLoop=1;jettySize=auto;html=1;exitX=0.5;exitY=1;exitDx=0;exitDy=0;entryX=0.5;entryY=0;entryDx=0;entryDy=0;" edge="1" parent="WIyWlLk6GJQsqaUBKTNV-1" source="R5FXkQCkuI0y1Rf3ddFC-27" target="R5FXkQCkuI0y1Rf3ddFC-53">
          <mxGeometry relative="1" as="geometry" />
        </mxCell>
        <mxCell id="R5FXkQCkuI0y1Rf3ddFC-59" value="" style="edgeStyle=orthogonalEdgeStyle;rounded=0;orthogonalLoop=1;jettySize=auto;html=1;" edge="1" parent="WIyWlLk6GJQsqaUBKTNV-1" source="R5FXkQCkuI0y1Rf3ddFC-27" target="R5FXkQCkuI0y1Rf3ddFC-58">
          <mxGeometry relative="1" as="geometry" />
        </mxCell>
        <mxCell id="R5FXkQCkuI0y1Rf3ddFC-27" value="Binning" style="rhombus;whiteSpace=wrap;html=1;rounded=1;glass=0;strokeWidth=1;shadow=0;" vertex="1" parent="WIyWlLk6GJQsqaUBKTNV-1">
          <mxGeometry x="180" y="930" width="80" height="80" as="geometry" />
        </mxCell>
        <mxCell id="R5FXkQCkuI0y1Rf3ddFC-63" value="" style="edgeStyle=orthogonalEdgeStyle;rounded=0;orthogonalLoop=1;jettySize=auto;html=1;" edge="1" parent="WIyWlLk6GJQsqaUBKTNV-1" source="R5FXkQCkuI0y1Rf3ddFC-42" target="R5FXkQCkuI0y1Rf3ddFC-62">
          <mxGeometry relative="1" as="geometry" />
        </mxCell>
        <mxCell id="R5FXkQCkuI0y1Rf3ddFC-42" value="MAG 2" style="whiteSpace=wrap;html=1;align=center;verticalAlign=middle;treeFolding=1;treeMoving=1;" vertex="1" parent="WIyWlLk6GJQsqaUBKTNV-1">
          <mxGeometry x="110" y="1050" width="100" height="60" as="geometry" />
        </mxCell>
        <mxCell id="R5FXkQCkuI0y1Rf3ddFC-65" value="" style="edgeStyle=orthogonalEdgeStyle;rounded=0;orthogonalLoop=1;jettySize=auto;html=1;" edge="1" parent="WIyWlLk6GJQsqaUBKTNV-1" source="R5FXkQCkuI0y1Rf3ddFC-43" target="R5FXkQCkuI0y1Rf3ddFC-64">
          <mxGeometry relative="1" as="geometry" />
        </mxCell>
        <mxCell id="R5FXkQCkuI0y1Rf3ddFC-43" value="MAG 3" style="whiteSpace=wrap;html=1;align=center;verticalAlign=middle;treeFolding=1;treeMoving=1;" vertex="1" parent="WIyWlLk6GJQsqaUBKTNV-1">
          <mxGeometry x="230" y="1050" width="100" height="60" as="geometry" />
        </mxCell>
        <mxCell id="R5FXkQCkuI0y1Rf3ddFC-67" value="" style="edgeStyle=orthogonalEdgeStyle;rounded=0;orthogonalLoop=1;jettySize=auto;html=1;" edge="1" parent="WIyWlLk6GJQsqaUBKTNV-1" source="R5FXkQCkuI0y1Rf3ddFC-53" target="R5FXkQCkuI0y1Rf3ddFC-66">
          <mxGeometry relative="1" as="geometry" />
        </mxCell>
        <mxCell id="R5FXkQCkuI0y1Rf3ddFC-53" value="MAG 4" style="whiteSpace=wrap;html=1;align=center;verticalAlign=middle;treeFolding=1;treeMoving=1;" vertex="1" parent="WIyWlLk6GJQsqaUBKTNV-1">
          <mxGeometry x="350" y="1050" width="100" height="60" as="geometry" />
        </mxCell>
        <mxCell id="R5FXkQCkuI0y1Rf3ddFC-61" value="" style="edgeStyle=orthogonalEdgeStyle;rounded=0;orthogonalLoop=1;jettySize=auto;html=1;" edge="1" parent="WIyWlLk6GJQsqaUBKTNV-1" source="R5FXkQCkuI0y1Rf3ddFC-54" target="R5FXkQCkuI0y1Rf3ddFC-60">
          <mxGeometry relative="1" as="geometry" />
        </mxCell>
        <mxCell id="R5FXkQCkuI0y1Rf3ddFC-54" value="MAG 1" style="whiteSpace=wrap;html=1;align=center;verticalAlign=middle;treeFolding=1;treeMoving=1;" vertex="1" parent="WIyWlLk6GJQsqaUBKTNV-1">
          <mxGeometry y="1050" width="100" height="60" as="geometry" />
        </mxCell>
        <mxCell id="R5FXkQCkuI0y1Rf3ddFC-58" value="MetaBAT2 params" style="ellipse;whiteSpace=wrap;html=1;rounded=1;glass=0;strokeWidth=1;shadow=0;" vertex="1" parent="WIyWlLk6GJQsqaUBKTNV-1">
          <mxGeometry x="340" y="930" width="170" height="80" as="geometry" />
        </mxCell>
        <mxCell id="R5FXkQCkuI0y1Rf3ddFC-60" value="Taxonomy" style="rhombus;whiteSpace=wrap;html=1;" vertex="1" parent="WIyWlLk6GJQsqaUBKTNV-1">
          <mxGeometry x="10" y="1160" width="80" height="80" as="geometry" />
        </mxCell>
        <mxCell id="R5FXkQCkuI0y1Rf3ddFC-62" value="Taxonomy" style="rhombus;whiteSpace=wrap;html=1;" vertex="1" parent="WIyWlLk6GJQsqaUBKTNV-1">
          <mxGeometry x="120" y="1160" width="80" height="80" as="geometry" />
        </mxCell>
        <mxCell id="R5FXkQCkuI0y1Rf3ddFC-74" value="" style="edgeStyle=orthogonalEdgeStyle;rounded=0;orthogonalLoop=1;jettySize=auto;html=1;" edge="1" parent="WIyWlLk6GJQsqaUBKTNV-1" source="R5FXkQCkuI0y1Rf3ddFC-64" target="R5FXkQCkuI0y1Rf3ddFC-73">
          <mxGeometry relative="1" as="geometry" />
        </mxCell>
        <mxCell id="R5FXkQCkuI0y1Rf3ddFC-64" value="Taxonomy" style="rhombus;whiteSpace=wrap;html=1;" vertex="1" parent="WIyWlLk6GJQsqaUBKTNV-1">
          <mxGeometry x="240" y="1160" width="80" height="80" as="geometry" />
        </mxCell>
        <mxCell id="R5FXkQCkuI0y1Rf3ddFC-70" value="" style="edgeStyle=orthogonalEdgeStyle;rounded=0;orthogonalLoop=1;jettySize=auto;html=1;" edge="1" parent="WIyWlLk6GJQsqaUBKTNV-1" source="R5FXkQCkuI0y1Rf3ddFC-66" target="R5FXkQCkuI0y1Rf3ddFC-69">
          <mxGeometry relative="1" as="geometry" />
        </mxCell>
        <mxCell id="R5FXkQCkuI0y1Rf3ddFC-66" value="Taxonomy" style="rhombus;whiteSpace=wrap;html=1;" vertex="1" parent="WIyWlLk6GJQsqaUBKTNV-1">
          <mxGeometry x="360" y="1160" width="80" height="80" as="geometry" />
        </mxCell>
        <mxCell id="R5FXkQCkuI0y1Rf3ddFC-69" value="gtdbtk params" style="ellipse;whiteSpace=wrap;html=1;" vertex="1" parent="WIyWlLk6GJQsqaUBKTNV-1">
          <mxGeometry x="520" y="1160" width="80" height="80" as="geometry" />
        </mxCell>
        <mxCell id="R5FXkQCkuI0y1Rf3ddFC-76" value="" style="edgeStyle=orthogonalEdgeStyle;rounded=0;orthogonalLoop=1;jettySize=auto;html=1;" edge="1" parent="WIyWlLk6GJQsqaUBKTNV-1" source="R5FXkQCkuI0y1Rf3ddFC-73" target="R5FXkQCkuI0y1Rf3ddFC-75">
          <mxGeometry relative="1" as="geometry" />
        </mxCell>
        <mxCell id="R5FXkQCkuI0y1Rf3ddFC-78" value="" style="edgeStyle=orthogonalEdgeStyle;rounded=0;orthogonalLoop=1;jettySize=auto;html=1;" edge="1" parent="WIyWlLk6GJQsqaUBKTNV-1" source="R5FXkQCkuI0y1Rf3ddFC-73" target="R5FXkQCkuI0y1Rf3ddFC-77">
          <mxGeometry relative="1" as="geometry" />
        </mxCell>
        <mxCell id="R5FXkQCkuI0y1Rf3ddFC-73" value="genome" style="whiteSpace=wrap;html=1;" vertex="1" parent="WIyWlLk6GJQsqaUBKTNV-1">
          <mxGeometry x="220" y="1330" width="120" height="60" as="geometry" />
        </mxCell>
        <mxCell id="R5FXkQCkuI0y1Rf3ddFC-75" value="genome" style="whiteSpace=wrap;html=1;" vertex="1" parent="WIyWlLk6GJQsqaUBKTNV-1">
          <mxGeometry x="20" y="1330" width="120" height="60" as="geometry" />
        </mxCell>
        <mxCell id="R5FXkQCkuI0y1Rf3ddFC-77" value="genome" style="whiteSpace=wrap;html=1;" vertex="1" parent="WIyWlLk6GJQsqaUBKTNV-1">
          <mxGeometry x="420" y="1330" width="120" height="60" as="geometry" />
        </mxCell>
      </root>
    </mxGraphModel>
  </diagram>
</mxfile>
